<svg id="Ebene_1" data-name="Ebene 1" xmlns="http://www.w3.org/2000/svg" viewBox="0 0 170.04979 65.22792"><defs><style>.cls-1{fill:#1d1d1b;}.cls-2{fill:#008fd6;}</style></defs><title>MeinNetz_Logo_180712_ohnenetz</title><path class="cls-1" d="M91.71679,28.09382c0-3.0312-.1182-5.5757-.2364-7.84961h6.335l.3555,3.95171h.1767a10.82115,10.82115,0,0,1,9.23641-4.5474c5.03409,0,10.24309,2.977,10.24309,11.3144v15.647h-7.28321V31.72121c0-3.789-1.5371-6.65859-5.50679-6.65859a6.05688,6.05688,0,0,0-5.6836,3.8974,5.71008,5.71008,0,0,0-.3545,2.1113v15.5386h-7.2822Z"/><path class="cls-1" d="M129.73138,35.29452c.1778,4.7641,4.2031,6.8213,8.87891,6.8213a25.17622,25.17622,0,0,0,7.9922-1.1909l1.06641,4.54829a28.031,28.031,0,0,1-10.06441,1.67771c-9.35348,0-14.86139-5.2509-14.86139-13.3183,0-7.3081,4.85549-14.1841,14.0918-14.1841,9.35361,0,12.43359,7.0386,12.43359,12.8306a15.135,15.135,0,0,1-.23629,2.8154Zm12.668-4.6558c.0605-2.43651-1.12309-6.4428-5.9785-6.4428-4.5,0-6.3946,3.73629-6.6895,6.4428Z"/><path class="cls-1" d="M163.124,13.47712v6.76709h6.9258v4.98091H163.124V36.86481c0,3.248.9473,4.87261,3.73049,4.87261a10.30107,10.30107,0,0,0,2.83979-.271l.11921,5.03509a17.327,17.327,0,0,1-5.2696.70361,8.77458,8.77458,0,0,1-6.2754-2.1655c-1.5996-1.51611-2.3086-3.9517-2.3086-7.417V25.22512H151.874V20.24421h4.08589V15.31742Z"/><path class="cls-1" d="M85.00969,33.42442a4.51415,4.51415,0,1,1-4.5146-4.5137h.001A4.51464,4.51464,0,0,1,85.00969,33.42442Z"/><path class="cls-2" d="M78.27239,49.66952c-.0131.0478-1.77539-3.0147-1.8159-2.961-4.4477,5.9922-9.2046,8.1646-10.8511,8.316-1.9555.1806-3.0795-2.1924-3.2363-3.8785-.5923-6.4311,4.2857-14.9853,7.5991-20.07081L78.353,17.45812c.85989-1.35991,3.11379-4.5533,2.95609-6.2466-.128-1.38531-2.6582-4.8135-4.7159-6.064a2.19956,2.19956,0,0,0-.5058-.2319,1.82363,1.82363,0,0,0-.90139-.0742c-1.4692.1386-5.668,4.2587-6.64211,5.2851-9.8642,9.7852-15.2085,16.0078-24.4057,25.8985,2.8505-5.6416,12.4736-21.3736,11.8955-27.63381-.40769-4.39749-4.7051-5.53469-6.4898-5.28519-3.333.3955-9.6743,7.376-12.416,10.6187l-8.7676,10.6079c2.0699-5.37161,3.3843-10.7969,2.6006-15.3511-.83789-4.85691-2.8618-9.78961-8.1865-8.8701C15.83689,1.30382.9428,18.51862,0,24.62652l.8716,3.127c9-12.8394,14.646-17.6919,16.90429-18.0801,1.936-.3325,3.2407,1.9463,3.5288,3.6162,1.0952,6.3638-3.1036,15.2725-6.0059,20.6011L5.5176,51.86482c-.751,1.4238-2.7183,4.7793-2.4615,6.458a6.516,6.516,0,0,0,.9898,2.4087l.0019-.0029a5.57462,5.57462,0,0,0,4.648,2.4267c2.1015.02589,3.1079-.52,4.4028-2.5947l12.8008-20.2871,8.6826-12.7691,3.89889-5.4775s2.147-2.8086,3.6739-4.5898c1.1713-1.3667,2.3559-.8711,2.4809-.002a6.3401,6.3401,0,0,1-.63769,2.75c-2.25631,5.8403-4.78511,10.7485-11.48681,21.8623L27.667,50.08792c-1.14261,1.8941-2.93121,5.7017-2.71341,8.0704.2261,2.4541,1.9995,7.3491,5.1797,7.0571,2.0371-.19,5.5029-5.3731,6.5791-7.0933,11.2378-18.0171,14.7143-21.64991,27.4453-35.1118l1.5151-1.53861-.6816,1.10749c-4.9961,8.22461-14.1704,21.86911-13.2344,32.018.45221,4.90921,2.7388,10.07231,8.11721,9.57521C64.54,63.74082,74.56389,56.13972,78.27239,49.66952Z"/></svg>